<svg xmlns="http://www.w3.org/2000/svg" viewBox="0 0 128 128">
<path fill="#f7df1e" d="M1.408 1.408h125.184v125.185H1.408z"></path>
<path d="M68.238 107.008c2.296 3.75 5.278 6.479 10.556 6.479 4.438 0 7.265-2.219 7.265-5.278 0-3.672-2.922-4.977-7.828-7.121l-2.688-1.152c-7.766-3.296-12.922-7.438-12.922-16.187 0-8.059 6.14-14.198 15.703-14.198 6.824 0 11.722 2.375 15.25 8.586l-8.342 5.359c-1.83-3.296-3.797-4.594-6.908-4.594-3.141 0-5.141 2-5.141 4.594 0 3.216 2 4.521 6.625 6.512l2.688 1.152c9.141 3.937 14.297 7.969 14.297 17.015 0 9.75-7.672 15.094-17.984 15.094-10.078 0-16.594-4.797-19.766-11.059l8.367-4.875zm-33.627.906c1.708 3.046 3.25 5.625 6.92 5.625 3.531 0 5.75-1.383 5.75-6.766V57.092h10.766v48.049c0 11.14-6.531 16.204-16.063 16.204-8.625 0-13.625-4.438-16.188-9.75l8.815-5.681z"></path>
</svg>
